<svg xmlns="http://www.w3.org/2000/svg" xmlns:xlink="http://www.w3.org/1999/xlink" width="400" height="400" viewBox="0 0 400 400">
<rect data-name="background" width="100%" height="100%" fill="#161B21"/><g data-name="watermark" class="watermark-logodesign" stroke="#ffffff" transform="translate(10, 320) scale(1.5) rotate(-45)" style="opacity:0.040000010281801224;"><path fill="#000000" d="M22.92,19.2q3.04,1.68,4.8,4.7t1.76,6.78t-1.76,6.78t-4.8,4.7t-6.68,1.68t-6.7-1.68t-4.84-4.7t-1.78-6.78t1.78-6.78t4.84-4.7t6.7-1.68t6.68,1.68z M11.14,21.74q-2.26,1.3-3.54,3.62t-1.28,5.32t1.28,5.32t3.54,3.6t5.1,1.28t5.08-1.28t3.52-3.6t1.28-5.32t-1.28-5.32t-3.54-3.62t-5.06-1.3q-2.84,0-5.1,1.3z M21.4,24.76l-1.8,2.32q-0.72-0.56-1.4-0.78t-1.48-0.22q-1.44,0-2.3,1.1t-0.86,3.46q0,2.32,0.82,3.44t2.26,1.12q0.96,0,1.74-0.3t1.54-0.9l1.64,2.44q-2.24,2.04-5.2,2.04q-3.2,0-5.08-2.04t-1.88-5.8q0-2.4,0.9-4.16t2.48-2.7t3.54-0.94q2.92,0,5.08,1.92z M41.2,20.32l0,22.96l10.96,0l-0.64,4.72l-16.2,0l0-27.68l5.88,0z M71.92,29.14q2.68,2.98,2.68,8.26q0,3.36-1.22,5.9t-3.52,3.94t-5.42,1.4q-4.76,0-7.46-2.98t-2.7-8.26q0-3.36,1.22-5.9t3.52-3.94t5.46-1.4q4.76,0,7.44,2.98z M61.26,32.1q-1.06,1.7-1.06,5.3t1.06,5.3t3.18,1.7t3.18-1.7t1.06-5.3t-1.04-5.3t-3.16-1.7q-2.16,0-3.22,1.7z M97.88,27.96q-2.08,0.8-6.12,0.8q2,0.88,2.96,2.18t0.96,3.26q0,2.04-1.06,3.66t-3.04,2.54t-4.62,0.92q-1.4,0-2.48-0.28q-0.8,0.52-0.8,1.4q0,0.64,0.5,1.02t1.94,0.38l3.24,0q2.36,0,4.14,0.78t2.76,2.16t0.98,3.14q0,3.24-2.78,5.06t-8.02,1.82q-3.76,0-5.94-0.78t-3.06-2.26t-0.88-3.72l5.08,0q0,1.04,0.4,1.66t1.46,0.92t3.06,0.3q2.76,0,3.86-0.68t1.1-1.92q0-1.12-0.84-1.72t-2.48-0.6l-3.12,0q-3.16,0-4.72-1.18t-1.56-2.98q0-1.12,0.66-2.18t1.82-1.78q-1.96-1.08-2.86-2.54t-0.9-3.5q0-2.32,1.14-4.06t3.2-2.68t4.7-0.94q3.28,0.08,5.4-0.56t4.52-2z M84.14,30.98q-0.94,1.02-0.94,2.78q0,1.8,0.94,2.84t2.58,1.04q1.72,0,2.6-1t0.88-2.96q0-3.72-3.52-3.72q-1.6,0-2.54,1.02z M117.04,29.14q2.68,2.98,2.68,8.26q0,3.36-1.22,5.9t-3.52,3.94t-5.42,1.4q-4.76,0-7.46-2.98t-2.7-8.26q0-3.36,1.22-5.9t3.52-3.94t5.46-1.4q4.76,0,7.44,2.98z M106.38,32.1q-1.06,1.7-1.06,5.3t1.06,5.3t3.18,1.7t3.18-1.7t1.06-5.3t-1.04-5.3t-3.16-1.7q-2.16,0-3.22,1.7z M141.78,23.26q3.9,2.94,3.9,10.78q0,7.68-3.82,10.82t-9.78,3.14l-7.92,0l0-27.68l7.24,0q6.48,0,10.38,2.94z M130.04,24.64l0,19.04l2.4,0q3.4,0,5.26-2.1t1.86-7.54q0-3.76-0.94-5.84t-2.5-2.82t-3.8-0.74l-2.28,0z M167.84,39.12l-13.24,0q0.28,2.88,1.56,4.08t3.48,1.2q1.36,0,2.56-0.44t2.6-1.4l2.36,3.2q-3.56,2.88-8.04,2.88q-5,0-7.68-3t-2.68-8.12q0-3.24,1.14-5.82t3.32-4.06t5.18-1.48q4.52,0,7.04,2.84t2.52,7.92q0,0.4-0.12,2.2z M162.32,35.32q0-5.28-3.8-5.28q-1.76,0-2.74,1.3t-1.18,4.22l7.72,0l0-0.24z M186.8,28.72l-2.16,3.24q-2.68-1.68-5.28-1.68q-1.4,0-2.16,0.52t-0.76,1.4q0,0.64,0.34,1.08t1.28,0.84t2.82,0.96q3.36,0.92,5,2.46t1.64,4.22q0,2.12-1.22,3.68t-3.3,2.38t-4.64,0.82q-2.68,0-4.88-0.82t-3.76-2.26l2.8-3.12q2.68,2.08,5.68,2.08q1.6,0,2.54-0.62t0.94-1.7q0-0.84-0.36-1.32t-1.32-0.9t-3-0.98q-3.2-0.88-4.74-2.5t-1.54-4.02q0-1.8,1.04-3.24t2.94-2.26t4.42-0.82q4.48,0,7.68,2.56z M196.92,26.8l0,21.2l-5.68,0l0-21.2l5.68,0z M196.54,16.82q0.98,0.94,0.98,2.38t-0.98,2.38t-2.5,0.94t-2.48-0.94t-0.96-2.38t0.96-2.38t2.48-0.94t2.5,0.94z M221.48,27.96q-2.08,0.8-6.12,0.8q2,0.88,2.96,2.18t0.96,3.26q0,2.04-1.06,3.66t-3.04,2.54t-4.62,0.92q-1.4,0-2.48-0.28q-0.8,0.52-0.8,1.4q0,0.64,0.5,1.02t1.94,0.38l3.24,0q2.36,0,4.14,0.78t2.76,2.16t0.98,3.14q0,3.24-2.78,5.06t-8.02,1.82q-3.76,0-5.94-0.78t-3.06-2.26t-0.88-3.72l5.08,0q0,1.04,0.4,1.66t1.46,0.92t3.06,0.3q2.76,0,3.86-0.68t1.1-1.92q0-1.12-0.84-1.72t-2.48-0.6l-3.12,0q-3.16,0-4.72-1.18t-1.56-2.98q0-1.12,0.66-2.18t1.82-1.78q-1.96-1.08-2.86-2.54t-0.9-3.5q0-2.32,1.14-4.06t3.2-2.68t4.7-0.94q3.28,0.08,5.4-0.56t4.52-2z M207.74,30.98q-0.94,1.02-0.94,2.78q0,1.8,0.94,2.84t2.58,1.04q1.72,0,2.6-1t0.88-2.96q0-3.72-3.52-3.72q-1.6,0-2.54,1.02z M240.48,27.86q1.56,1.7,1.56,4.7l0,15.44l-5.68,0l0-14.48q0-1.72-0.58-2.42t-1.74-0.7q-1.2,0-2.18,0.74t-1.9,2.22l0,14.64l-5.68,0l0-21.2l4.92,0l0.44,2.68q1.32-1.64,2.9-2.48t3.58-0.84q2.8,0,4.36,1.7z M251.84,42.8q1,1,1,2.4t-1,2.42t-2.44,1.02q-1.4,0-2.4-1.02t-1-2.42t1-2.4t2.4-1q1.44,0,2.44,1z M271.8,48l-1.56-6.2l-8.68,0l-1.56,6.2l-6.12,0l8.52-27.68l7.16,0l8.48,27.68l-6.24,0z M262.68,37.44l6.44,0l-3.24-12.76z M286.48,20.32l0,27.68l-5.88,0l0-27.68l5.88,0z"/></g><g data-name="icon" fill="#F4A950" data="id:58073" transform="translate(8.599201541792086,146.2859390485834) scale(1.0861469363589449)">
  <path d="M13.325,54.829c-0.083,2.959-3.042,1.416-3.042,1.416c-3.875-2.125-3.167,0.834-3.167,0.834  c2.167,2.125,0.417,3.416,0.417,3.416c0.375-1.348-0.729-2.082-0.729-2.082c-1.813-0.875-0.313-3.063-0.313-3.063  c1.125-1.688,3.688-0.063,3.688-0.063c2.563-0.688-0.625-3.688-0.625-3.688c-0.875-0.063-2.188,1-2.188,1  c-5.125-0.563-1.75-6.312-1.75-6.312c-2,7.625,2.563,4.438,2.563,4.438c0.688-2.125,9.625,2.069,9.063-0.188  c-0.562-2.256-3.125-2.313-3.125-2.313c-2.938,2.937-5.188,0-5.188,0c3.75,1.938,2.375-2.438,6.375-1.063s4.438,3.625,4.438,3.625  c2.688,1.312,9.5-1.813,9.5-1.813c-9.25-1.563-7.813-3.563-7.813-3.563c0.188,1.813,9.313,2.688,9.313,2.688  c2.125-0.75,10.454-4.447,7.062-5.955s-14.447-1.759-14.447-1.759c-12.688,8.166-10.427-1.005-10.427-1.005  c0.879,8.292,10.301-2.261,10.301-2.261c-6.156-7.789-12.563-0.125-12.563-0.125c-6.156,10.553-6.283,6.237-6.283,6.237  c2.008,0.71,5.152-7.62,5.152-7.62c3.518-5.025,8.166-4.02,8.166-4.02c-1.759-2.136-1.633-4.397-1.633-4.397  c1.884-10.427-3.884-4.527-3.884-4.527s0,0,1.087-1.493s3.048-0.638,3.048-0.638c2.022,0.663,1.633,4.648,1.633,4.648  c3.392-7.035,8.292-4.648,8.292-4.648c-2.543-1.175-6.407,4.02-6.407,4.02c-1.131,3.392,3.015,8.04,3.015,8.04  c-1.508-5.151,3.015-9.924,3.015-9.924c12.939-4.774,12.563,1.382,12.563,1.382c-2.889-4.397-10.176-0.879-10.176-0.879  c-2.261,0.628-1.759,5.904-1.759,5.904c4.397-2.262,4.773,0.754,4.773,0.754c-0.126-0.879-0.879-0.377-0.879-0.377  c-1.382-1.131-4.271,2.261-4.271,2.261c-1.256,2.764,5.653,6.156,5.653,6.156c-2.261-1.507,3.141-9.297,3.141-9.297  c9.296-6.407,7.286-1.884,7.286-1.884c-0.126-1.884-4.02,0.628-4.02,0.628c-1.131-0.126-6.658,10.553-1.633,10.302  s6.156,0.754,6.156,0.754c3.518-4.397,3.894,0.628,3.643-8.668s-9.673-11.181-9.673-11.181c-20.352-2.262-13.821-6.709-13.821-6.709  c-4.357,2.787,16.836,8.719,12.439,3.066s-10.176-1.759-10.176-1.759c2.01-1.508,7.173-4.785,10.679,0.502s9.422,5.779,9.422,5.779  c2.889-8.543,5.402-4.271,5.402-4.271c-2.011-2.01-3.894,3.266-3.894,3.266c-1.005,3.141,3.121,7.412,3.121,7.412  c-0.021-1.131,3.412-5.904,3.412-5.904c1.634-7.789-3.89-7.789-3.89-7.789c-4.015-1.005-12.442-0.377-12.442-0.377  c-9.799-3.266-1.884-4.397-1.884-4.397c-3.015,1.256,4.146,2.387,4.146,2.387c14.252-0.667,18.844,3.769,18.844,3.769  c0.754-2.638-0.251-4.146-0.251-4.146c-0.503-2.889-5.527-3.267-5.527-3.267c-8.872,1.3-7.664-0.834-7.664-0.834  c1.739,1.542,4.146,0.206,4.146,0.206c7.161-1.13,11.809,2.764,11.809,2.764c6.697,4.758-1.131,12.688-1.131,12.688  c-4.648,8.417-5.653,16.081-5.653,16.081c0-1.382,2.262-3.392,2.262-3.392c1.759-0.879,5.15-0.125,5.15-0.125  s0.252,1.256,0.126,0.628s-1.256-0.377-1.256-0.377c-4.02-0.628-4.648,6.533-4.648,6.533c4.899-0.377,7.789-5.904,7.789-5.904  c-1.382-1.759-0.503-8.041-0.503-8.041c1.256-5.653,4.021-6.91,4.021-6.91c-1.453-2.623,1.633-6.03,1.633-6.03  c7.412-3.769,9.045,4.397,9.045,4.397c-0.503,3.015,0.126,3.392,0.126,3.392c-1.005-0.879-1.131-2.764-1.131-2.764  c-1.131-4.522-6.155-3.769-6.155-3.769c-2.261,1.256-0.377,4.648-0.377,4.648c1.885-1.382,4.899,1.382,4.899,1.382  c1.257,2.261,2.764,2.261,2.764,2.261c-1.005,0.628-2.639-0.251-2.639-0.251c-1.607-1.867-3.895-1.884-3.895-1.884  c-1.885-0.125-4.146,2.512-4.146,2.512c-1.257,5.402,1.508,9.045,1.508,9.045c4.021-3.895,4.021-6.156,4.021-6.156  c2.765-2.01,8.794-2.764,11.809-0.879c1.656,1.035,1.076,0.402-0.138-0.649c-0.995-0.862-2.417-2.007-3.38-2.743  c-2.136-1.633-0.754-4.271-0.754-4.271c0.624,3.127,2.136,3.895,2.136,3.895c11.684,9.924,4.397,7.287,4.397,7.287  c-13.818-3.769-13.065,3.266-13.065,3.266c1.821-2.267,9.422-0.628,12.312,0.84s4.648,4.186,4.648,4.186  c-0.376-1.507-4.397-2.01-4.397-2.01c-14.447-7.161-20.979,5.653-20.979,5.653c3.141-0.879,6.406-3.266,17.085-2.889  s10.804,10.663,10.804,10.663c-1.006-4.412-3.518-5.036-3.518-5.036c-1.257,1.481,1.131,6.81,1.131,6.81  c5.276,2.261,1.759,8.292,1.759,8.292c2.848-5.283-4.146-5.779-4.146-5.779c-5.527,6.408-2.764,7.916-2.764,7.916  c8.753-1.043,4.396,5.025,4.396,5.025c0.387-4.16-4.647-2.766-4.647-2.766c-5.281-4.9,1.382-11.808,1.382-11.808  c0.88-11.558-8.794-6.659-8.794-6.659c4.146,4.146,3.141,8.794,3.141,8.794c5.653,26.006-5.779,14.697-5.779,14.697  c10.804,6.031,2.513-11.432,2.513-11.432c-10.302,0.252-7.035,1.006-7.035,1.006c9.832,4.928,4.899,5.275,4.899,5.275  c3.015-1.633-7.412-4.898-7.412-4.898c-4.271-3.393,5.527-2.514,5.527-2.514c9.296-1.758-2.136-8.04-2.136-8.04  c-4.271-2.764-13.944,8.669-13.944,8.669c-5.025,3.141-1.633,4.396-1.633,4.396c5.654,1.006,8.668,4.9,8.668,4.9  c13.944,16.457,23.869,2.26,23.869,2.26c-7.663,17.086-21.859,1.807-21.859,1.807c3.518,0.676,3.644,5.732,3.644,5.732  c-0.754,4.271,1.131,6.531,1.131,6.531c-2.764-0.125-2.764-6.908-2.764-6.908c-2.01-7.035-11.684-4.021-11.684-4.021  c-1.005,2.891,2.261,8.795,2.261,8.795c-0.503-1.258-0.753-3.518-0.753-3.518c1.945-3.791,4.647-0.754,4.647-0.754  c10.05,16.582,17.086,1.131,17.086,1.131c-10.05,21.859-17.588-6.031-18.468,6.406s7.161,1.256,7.161,1.256  c-8.794,14.195-6.784,0.504-9.925-0.502c-3.141-1.004-4.522-14.148-4.522-14.148c4.773,28.691-6.658,23.445-6.658,23.445  c5.276,0.879,4.648-8.166,4.648-8.166c-4.647,4.775-5.779,7.287-5.277,6.783c0.502-0.502-0.366-2.09,2.392-4.396  c2.758-2.305,1.628-11.307,1.628-11.307c-5.151,34.799-27.12,6.709-19.975,13.693s19.222-11.432,13.065-7.537  c-6.156,3.895-9.045,7.537-9.045,7.537c-2.014-2.623,6.91-7.035,6.91-7.035c-11.809,7.412-18.834,2.977-18.834,2.977  c1.392,2.6,17.075-2.85,10.417-1.594s-10.553-11.936-10.679-8.041s8.668,7.789-0.502,6.533  c-9.171-1.258-11.635-13.572-10.553-10.301s8.919,9.924,7.161,5.275S9.638,70.3,13.306,71.04s5.15,4.271,5.15,2.639  s0.502-5.654-5.276-4.648c-5.779,1.004-6.841-8.408-6.841-8.408c0.514-2.693,1.382,9.672,6.91,5.023s11.935,7.664,13.818,10.051  c1.885,2.387,12.814,7.287,7.664-7.914c-5.15-15.202,10.678-13.818,10.051-19.975c-0.629-6.156-7.789,0.754-7.789,0.754  c-11.056,6.534-24.373,3.644-24.373,3.644C10.583,51.455,13.408,51.871,13.325,54.829z"/>
  </g><g data-name="business_name" fill="#F4A950" data="id:301" transform="translate(133.78341626571367,142.29256871439324) scale(1.7288025101956834)"><path d="M0.7,48l4.44-29.4l5.28,0l4.44,29.4l-4.2,0l-0.8-6l-4.16,0l-0.8,6l-4.2,0z M6.3,37.44l2.96,0l-1.24-9.88l-0.12-1.56l-0.24,0l-0.12,1.56z M17.8,48l0-18.24l-2.04,0l0-3.64l2.04,0l0-1.2q0-3.1,1.45-4.79t3.79-1.69q0.52,0,0.96,0.1t0.72,0.26l0,3.52q-0.4-0.3-1.2-0.3q-0.58,0-1.13,0.6t-0.55,1.78l0,1.72l2.44,0l0,3.64l-2.44,0l0,18.24l-4.04,0z M30.92,48.32q-2.42,0-3.81-1.67t-1.39-4.09l0-11q0-2.56,1.38-4.16t3.86-1.6q1.62,0,2.79,0.74t1.79,2.01t0.62,2.89l0,6.36l-6.68,0l0,4.76q0,0.82,0.37,1.51t1.11,0.69q0.78,0,1.11-0.64t0.33-1.56l0-2.4l3.76,0l0,2.52q0,2.54-1.37,4.09t-3.87,1.55z M29.48,34.64l2.92,0l0-3.08q0-0.9-0.31-1.57t-1.13-0.67q-0.76,0-1.12,0.69t-0.36,1.55l0,3.08z M42.96,48.32q-2.42,0-3.81-1.67t-1.39-4.09l0-11q0-2.56,1.38-4.16t3.86-1.6q1.62,0,2.79,0.74t1.79,2.01t0.62,2.89l0,6.36l-6.68,0l0,4.76q0,0.82,0.37,1.51t1.11,0.69q0.78,0,1.11-0.64t0.33-1.56l0-2.4l3.76,0l0,2.52q0,2.54-1.37,4.09t-3.87,1.55z M41.52,34.64l2.92,0l0-3.08q0-0.9-0.31-1.57t-1.13-0.67q-0.76,0-1.12,0.69t-0.36,1.55l0,3.08z M51.24,48l0-18.24l-2.04,0l0-3.64l2.04,0l0-1.2q0-3.1,1.45-4.79t3.79-1.69q0.52,0,0.96,0.1t0.72,0.26l0,3.52q-0.4-0.3-1.2-0.3q-0.58,0-1.13,0.6t-0.55,1.78l0,1.72l2.44,0l0,3.64l-2.44,0l0,18.24l-4.04,0z  M66.12,48l0-29.4l4.32,0l0,12.16l3.36,0l0-12.16l4.32,0l0,29.4l-4.32,0l0-12.8l-3.36,0l0,12.8l-4.32,0z M85.7,48.28q-2.42,0-3.8-1.63t-1.38-4.13l0-10.96q0-2.5,1.38-4.13t3.8-1.63q2.4,0,3.79,1.63t1.39,4.13l0,10.96q0,2.5-1.39,4.13t-3.79,1.63z M85.7,44.76q0.78,0,1.08-0.63t0.3-1.61l0-10.96q0-1-0.3-1.62t-1.08-0.62t-1.08,0.62t-0.3,1.62l0,10.96q0,1,0.3,1.62t1.08,0.62z M97.92,48.32q-1.42,0-2.48-0.48t-1.76-1.37t-1.05-2.11t-0.35-2.72l3.76,0q0,1.34,0.43,2.33t1.45,0.99q0.88,0,1.14-0.74t0.26-1.7q0-1.12-0.87-2.29t-1.81-2.09q-1.62-1.6-2.69-3.16t-1.07-3.66q0-2.48,1.3-4t3.7-1.52q1.44,0,2.43,0.38t1.59,1.14t0.87,1.86t0.27,2.54l-3.76,0q0-1.04-0.22-1.8t-1.1-0.76q-0.72,0-1.02,0.61t-0.3,1.55q0,1.1,0.53,1.95t1.77,2.07q1.56,1.52,2.85,3.24t1.29,3.74q0,1.32-0.35,2.42t-1.02,1.9t-1.62,1.24t-2.17,0.44z M109.92,48.32q-1.42,0-2.48-0.48t-1.76-1.37t-1.05-2.11t-0.35-2.72l3.76,0q0,1.34,0.43,2.33t1.45,0.99q0.88,0,1.14-0.74t0.26-1.7q0-1.12-0.87-2.29t-1.81-2.09q-1.62-1.6-2.69-3.16t-1.07-3.66q0-2.48,1.3-4t3.7-1.52q1.44,0,2.43,0.38t1.59,1.14t0.87,1.86t0.27,2.54l-3.76,0q0-1.04-0.22-1.8t-1.1-0.76q-0.72,0-1.02,0.61t-0.3,1.55q0,1.1,0.53,1.95t1.77,2.07q1.56,1.52,2.85,3.24t1.29,3.74q0,1.32-0.35,2.42t-1.02,1.9t-1.62,1.24t-2.17,0.44z M119.82,48.32q-1.4,0-2.42-1.42t-1.02-4.34q0-2.82,1.21-4.54t3.63-2.98q0.76-0.4,1.28-0.72t0.64-0.6l0-2.4q0-0.82-0.19-1.41t-0.93-0.59q-0.68,0-0.92,0.63t-0.24,1.57l0,1.04l-4.04,0l0-0.92q0-1.8,0.71-3.11t1.94-2.02t2.79-0.71q1.5,0,2.6,0.69t1.71,1.9t0.61,2.77l0,13.04q0,1.46,0.08,2.27t0.2,1.53l-3.96,0q-0.26-0.32-0.31-0.94t-0.05-0.82l-0.28,0q-0.5,0.92-1.27,1.5t-1.77,0.58z M121.46,44.36q0.7,0,1.19-0.48t0.49-1.04l0-5.2q-1.46,0.62-2.13,1.87t-0.67,2.81q0,0.68,0.26,1.36t0.86,0.68z M129.66,48l0-21.88l4.04,0l0,21.88l-4.04,0z M129.66,22.64l0-4.04l4.04,0l0,4.04l-4.04,0z M135.9,48l0-21.88l4.04,0l0,1.84q0.72-0.7,1.62-1.43t1.66-0.73q1,0,1.68,0.64t1.02,1.62t0.34,2.02l0,17.92l-4.04,0l0-17.12q0-0.64-0.22-0.9t-0.74-0.26q-0.44,0-0.75,0.31t-0.57,0.73l0,17.24l-4.04,0z"/></g></svg>